<?xml version="1.0" encoding="utf-8"?>
<!-- Generator: Adobe Illustrator 18.0.0, SVG Export Plug-In . SVG Version: 6.00 Build 0)  -->
<!DOCTYPE svg PUBLIC "-//W3C//DTD SVG 1.1//EN" "http://www.w3.org/Graphics/SVG/1.1/DTD/svg11.dtd">
<svg version="1.1" id="Layer_1" xmlns="http://www.w3.org/2000/svg" xmlns:xlink="http://www.w3.org/1999/xlink" x="0px" y="0px"
	 viewBox="0 0 14 14" enable-background="new 0 0 14 14" xml:space="preserve">
<path fill="#F95C5C" d="M9.8,11.4c-0.2,0-0.3-0.1-0.5-0.2c-0.3-0.3-0.3-0.7,0-0.9c1.8-1.8,1.8-4.7,0-6.5c-0.3-0.3-0.3-0.7,0-0.9
	s0.7-0.3,0.9,0C11.4,3.9,12,5.4,12,7s-0.6,3.1-1.7,4.2C10.2,11.3,10,11.4,9.8,11.4L9.8,11.4L9.8,11.4z M7.5,10.1
	c-0.2,0-0.3-0.1-0.5-0.2C6.8,9.7,6.8,9.3,7,9c1.1-1.1,1.1-2.9,0-4C6.8,4.7,6.8,4.3,7,4.1s0.7-0.3,0.9,0c1.6,1.6,1.6,4.3,0,5.9
	C7.8,10.1,7.7,10.1,7.5,10.1z"/>
<path fill="#F95C5C" d="M5.7,13.1c-0.1,0-0.2,0-0.3-0.1L2,9.6H0.4C0.2,9.6,0,9.4,0,9.2V4.8c0-0.2,0.2-0.4,0.4-0.4H2L5.4,1
	c0.1-0.1,0.3-0.2,0.5-0.1s0.3,0.2,0.3,0.4v11.4c0,0.2-0.1,0.3-0.3,0.4C5.8,13.1,5.7,13.1,5.7,13.1L5.7,13.1z"/>
</svg>
