<?xml version="1.0" encoding="utf-8"?>
<!-- Generator: Adobe Illustrator 16.0.0, SVG Export Plug-In . SVG Version: 6.00 Build 0)  -->
<!DOCTYPE svg PUBLIC "-//W3C//DTD SVG 1.1//EN" "http://www.w3.org/Graphics/SVG/1.1/DTD/svg11.dtd">
<svg version="1.1" id="Layer_1" xmlns="http://www.w3.org/2000/svg" xmlns:xlink="http://www.w3.org/1999/xlink" x="0px" y="0px"
	 width="180px" height="180px" viewBox="0 0 180 180" enable-background="new 0 0 180 180" xml:space="preserve">
<g>
	<path fill="#FFFFFF" d="M23.347,121.604h133.302V58.389H23.347V121.604z M151.449,101.087c-8.459,0-15.318,6.861-15.318,15.32
		h-14.585h-9.699h-43.69h-9.698H43.874c0-8.459-6.861-15.32-15.32-15.32V78.916c8.459,0,15.32-6.861,15.32-15.319h15.365h9.451
		h42.624h9.442h15.375c0,8.458,6.859,15.319,15.318,15.319V101.087z"/>
	<path fill="#FFFFFF" d="M99.467,75.398c-2.591-2.59-5.888-4.142-9.47-4.142c-3.582,0-6.87,1.552-9.459,4.142
		c-1.589,1.589-2.921,3.564-3.876,5.823c-1.129,2.617-1.763,5.602-1.763,8.78c0,3.014,0.569,5.86,1.589,8.376
		c0.918,2.287,2.204,4.299,3.765,5.934c2.627,2.765,6.025,4.436,9.745,4.436c3.721,0,7.127-1.671,9.754-4.436
		c1.562-1.635,2.848-3.646,3.766-5.934c1.02-2.516,1.589-5.362,1.589-8.376c0-3.178-0.634-6.163-1.763-8.78
		C102.388,78.962,101.056,76.987,99.467,75.398"/>
	<path fill="#F95C5C" d="M148.409,143.271l-4.758-4.758l-16.907-16.908h-9.699l21.758,21.758l4.758,4.757l4.307,4.309
		c1.148,1.139,3.004,1.139,4.143,0l0.707-0.707c1.147-1.148,1.147-3.004,0-4.144L148.409,143.271z"/>
	<path fill="#F95C5C" d="M145.581,37.008c1.497,0,3.169-1.203,4.822-2.856c2.424-2.416,3.306-5.465,1.965-6.806
		s-4.391-0.459-6.815,1.956c-1.653,1.654-2.847,3.334-2.847,4.831c0,0-13.859,12.629-26.01,24.256h9.01
		C135.919,47.607,145.581,37.008,145.581,37.008"/>
	<path fill="#F95C5C" d="M136.131,116.406c0-8.459,6.859-15.319,15.318-15.319V78.916c-8.459,0-15.318-6.86-15.318-15.319H43.874
		c0,8.459-6.861,15.319-15.32,15.319v22.171c8.459,0,15.32,6.86,15.32,15.319H136.131z M80.252,104.311
		c-1.561-1.635-2.847-3.646-3.766-5.933c-1.019-2.518-1.588-5.364-1.588-8.376c0-3.178,0.633-6.163,1.763-8.78
		c0.955-2.26,2.287-4.234,3.876-5.823c2.59-2.59,5.878-4.142,9.46-4.142c3.581,0,6.879,1.552,9.469,4.142
		c1.589,1.589,2.92,3.563,3.875,5.823c1.13,2.617,1.764,5.602,1.764,8.78c0,3.012-0.569,5.859-1.589,8.376
		c-0.918,2.287-2.204,4.298-3.766,5.933c-2.626,2.764-6.034,4.437-9.753,4.437C86.278,108.747,82.88,107.074,80.252,104.311"/>
	<path fill="#F95C5C" d="M34.423,37.008c0,0,9.662,10.599,19.866,21.381h9.01C51.148,46.762,37.298,34.133,37.298,34.133
		c0-1.497-1.194-3.177-2.847-4.831c-2.425-2.415-5.474-3.297-6.815-1.956c-1.341,1.341-0.459,4.39,1.965,6.806
		C31.254,35.805,32.926,37.008,34.423,37.008"/>
	<path fill="#F95C5C" d="M36.361,138.513l-4.767,4.759l-4.307,4.307c-1.148,1.139-1.148,2.994,0,4.142l0.707,0.707
		c1.139,1.14,2.994,1.14,4.142,0l4.308-4.307l4.766-4.758l21.749-21.757H53.26L36.361,138.513z"/>
	<path fill="#F95C5C" d="M170.269,87.418h-7.191c-0.829,0-1.5,0.672-1.5,1.5s0.671,1.5,1.5,1.5h7.191c0.827,0,1.5-0.672,1.5-1.5
		S171.096,87.418,170.269,87.418"/>
	<path fill="#F95C5C" d="M163.077,83.988c0.384,0,0.768-0.146,1.061-0.439l5.088-5.088c0.586-0.586,0.586-1.535,0-2.121
		s-1.535-0.586-2.121,0l-5.089,5.087c-0.585,0.586-0.585,1.536,0,2.122C162.309,83.842,162.692,83.988,163.077,83.988"/>
	<path fill="#F95C5C" d="M164.138,94.286c-0.587-0.586-1.535-0.586-2.121,0s-0.586,1.535,0,2.121l5.089,5.088
		c0.293,0.293,0.677,0.439,1.06,0.439c0.384,0,0.769-0.146,1.062-0.439c0.586-0.586,0.586-1.535,0-2.121L164.138,94.286z"/>
	<path fill="#F95C5C" d="M16.917,87.418H9.727c-0.829,0-1.5,0.672-1.5,1.5s0.671,1.5,1.5,1.5h7.191c0.828,0,1.5-0.672,1.5-1.5
		S17.746,87.418,16.917,87.418"/>
	<path fill="#F95C5C" d="M15.857,94.286l-5.088,5.088c-0.586,0.586-0.586,1.535,0,2.121c0.293,0.293,0.677,0.439,1.061,0.439
		c0.383,0,0.767-0.146,1.06-0.439l5.088-5.088c0.586-0.586,0.586-1.535,0-2.121S16.443,93.7,15.857,94.286"/>
	<path fill="#F95C5C" d="M12.89,76.34c-0.586-0.586-1.535-0.586-2.121,0s-0.586,1.535,0,2.121l5.088,5.088
		c0.293,0.293,0.677,0.439,1.06,0.439c0.384,0,0.768-0.146,1.061-0.439c0.586-0.586,0.586-1.535,0-2.121L12.89,76.34z"/>
	<path fill="#202730" d="M156.648,56.889h-27.463c8.049-8.544,15.357-16.522,17.107-18.437c1.558-0.244,3.222-1.29,5.168-3.238
		c1.898-1.889,3.033-4.188,3.034-6.147c0.001-1.121-0.368-2.083-1.067-2.781c-1.982-1.985-5.822-1.145-8.935,1.956
		c-1.946,1.944-2.989,3.611-3.231,5.179c-2.415,2.207-14.446,13.223-25.168,23.468H63.9C53.179,46.644,41.155,35.627,38.742,33.42
		c-0.243-1.567-1.286-3.234-3.233-5.181c-3.111-3.099-6.953-3.941-8.934-1.954c-0.699,0.698-1.068,1.66-1.067,2.781
		c0.002,1.959,1.137,4.258,3.032,6.145c1.949,1.949,3.612,2.996,5.169,3.24c1.75,1.915,9.058,9.893,17.101,18.437H23.346
		c-0.828,0-1.5,0.672-1.5,1.5v63.216c0,0.828,0.672,1.5,1.5,1.5h26.293l-23.408,23.408c-0.84,0.832-1.304,1.942-1.306,3.124
		c-0.002,1.188,0.46,2.304,1.3,3.143l0.708,0.709c0.86,0.86,1.992,1.291,3.127,1.291c1.133-0.001,2.269-0.431,3.137-1.291
		l30.383-30.384h52.844l26.075,26.076c0.001,0,0.001,0,0.001,0l4.313,4.313c0.863,0.857,1.996,1.286,3.13,1.286
		c1.135,0,2.268-0.431,3.13-1.292l0.706-0.707c0.841-0.841,1.303-1.957,1.3-3.144c-0.002-1.182-0.465-2.291-1.3-3.119l-9.035-9.035
		c-0.021-0.021-0.043-0.044-0.066-0.065l-14.312-14.313h26.283c0.827,0,1.5-0.672,1.5-1.5V58.389
		C158.148,57.561,157.476,56.889,156.648,56.889 M143.717,35.242c0.313-0.284,0.489-0.687,0.489-1.109
		c0-0.508,0.313-1.675,2.406-3.768c2.067-2.06,4.213-2.439,4.694-1.957c0.155,0.155,0.189,0.442,0.188,0.656
		c0,0.869-0.565,2.445-2.153,4.027c-1.998,1.998-3.147,2.417-3.761,2.417c-0.422,0-0.825,0.178-1.109,0.49
		c-0.095,0.104-9.487,10.402-19.411,20.891h-4.616C131.722,46.178,143.589,35.358,143.717,35.242 M35.531,35.998
		c-0.284-0.312-0.687-0.49-1.109-0.49c-0.613,0-1.762-0.419-3.762-2.419c-1.586-1.58-2.151-3.156-2.152-4.025
		c0-0.214,0.032-0.502,0.188-0.657c0.479-0.482,2.628-0.103,4.694,1.956c2.095,2.096,2.407,3.262,2.407,3.77
		c0,0.422,0.178,0.825,0.49,1.109c0.128,0.116,11.986,10.935,23.263,21.647h-4.615C45.02,46.4,35.626,36.102,35.531,35.998
		 M36.443,145.999l-2.728-2.729l2.641-2.641l2.728,2.729L36.443,145.999z M31.081,151.362c-0.563,0.558-1.471,0.558-2.026,0.006
		l-0.708-0.71c-0.272-0.271-0.423-0.633-0.422-1.016c0.001-0.378,0.15-0.733,0.422-1.004l3.247-3.247l2.728,2.729L31.081,151.362z
		 M41.205,141.237l-2.728-2.728l15.404-15.405h5.456L41.205,141.237z M146.289,143.271l-2.729,2.728l-2.641-2.639l2.731-2.727
		L146.289,143.271z M152.078,149.643c0.001,0.383-0.149,0.744-0.422,1.018l-0.706,0.706c-0.556,0.556-1.464,0.553-2.022,0.001
		l-3.247-3.247l2.729-2.729l3.251,3.251C151.929,148.909,152.077,149.265,152.078,149.643 M141.529,138.512l-2.73,2.726
		l-18.133-18.133h5.457L141.529,138.512z M155.148,120.104H24.846V59.889h130.302V120.104z"/>
	<path fill="#202730" d="M28.555,62.097c-0.829,0-1.5,0.672-1.5,1.5v52.81c0,0.828,0.671,1.5,1.5,1.5H151.45
		c0.827,0,1.5-0.672,1.5-1.5v-52.81c0-0.828-0.673-1.5-1.5-1.5H28.555z M149.95,99.663c-8.078,0.718-14.525,7.165-15.243,15.243
		H45.298c-0.719-8.078-7.165-14.525-15.243-15.243V80.34c8.078-0.718,14.524-7.165,15.243-15.243h89.409
		c0.718,8.078,7.165,14.525,15.243,15.243V99.663z M42.289,65.097c-0.697,6.423-5.811,11.537-12.234,12.234V65.097H42.289z
		 M30.055,102.672c6.423,0.697,11.537,5.812,12.234,12.234H30.055V102.672z M137.716,114.906
		c0.697-6.423,5.811-11.537,12.234-12.234v12.234H137.716z M149.95,77.331c-6.424-0.697-11.537-5.811-12.234-12.234h12.234V77.331z"
		/>
	<path fill="#202730" d="M57.194,87.593v-4.947c0.678,0.475,1.124,1.259,1.124,2.148c0,0.828,0.672,1.5,1.5,1.5s1.5-0.672,1.5-1.5
		c0-2.582-1.75-4.757-4.124-5.415v-1.097c0-0.828-0.672-1.5-1.5-1.5s-1.5,0.672-1.5,1.5v1.097c-2.374,0.658-4.124,2.833-4.124,5.415
		c0,2.581,1.75,4.756,4.124,5.414v7.301c-1.298-0.577-2.208-1.874-2.208-3.385c0-0.828-0.672-1.5-1.5-1.5s-1.5,0.672-1.5,1.5
		c0,3.184,2.23,5.85,5.208,6.532v1.063c0,0.828,0.672,1.5,1.5,1.5s1.5-0.672,1.5-1.5v-1.063c2.977-0.683,5.207-3.35,5.207-6.532
		C62.401,90.943,60.171,88.277,57.194,87.593 M53.07,84.794c0-0.889,0.446-1.673,1.124-2.148v4.295
		C53.516,86.466,53.07,85.683,53.07,84.794 M57.194,97.51v-6.769c1.297,0.578,2.207,1.874,2.207,3.384
		C59.401,95.636,58.491,96.932,57.194,97.51"/>
	<path fill="#202730" d="M125.811,87.593v-4.947c0.678,0.475,1.123,1.259,1.123,2.148c0,0.828,0.673,1.5,1.5,1.5
		c0.828,0,1.5-0.672,1.5-1.5c0-2.582-1.75-4.757-4.123-5.415v-1.097c0-0.828-0.673-1.5-1.5-1.5c-0.828,0-1.5,0.672-1.5,1.5v1.097
		c-2.374,0.658-4.124,2.833-4.124,5.415c0,2.581,1.75,4.756,4.124,5.414v7.301c-1.299-0.577-2.208-1.874-2.208-3.385
		c0-0.828-0.673-1.5-1.5-1.5c-0.828,0-1.5,0.672-1.5,1.5c0,3.184,2.229,5.85,5.208,6.532v1.063c0,0.828,0.672,1.5,1.5,1.5
		c0.827,0,1.5-0.672,1.5-1.5v-1.063c2.977-0.683,5.206-3.35,5.206-6.532C131.017,90.943,128.787,88.277,125.811,87.593
		 M121.687,84.794c0-0.889,0.445-1.673,1.124-2.148v4.295C122.132,86.466,121.687,85.683,121.687,84.794 M125.811,97.51v-6.769
		c1.297,0.578,2.206,1.874,2.206,3.384C128.017,95.636,127.107,96.932,125.811,97.51"/>
	<path fill="#202730" d="M111.461,107.247H98.687c0.752-0.563,1.475-1.19,2.149-1.9c1.717-1.798,3.087-3.954,4.07-6.405
		c1.127-2.782,1.699-5.79,1.699-8.94c0-3.321-0.634-6.473-1.884-9.372c-1.022-2.413-2.434-4.53-4.195-6.292
		c-2.954-2.955-6.694-4.582-10.529-4.582c-3.83,0-7.566,1.627-10.52,4.582c-1.764,1.763-3.175,3.882-4.193,6.289
		c-1.252,2.901-1.886,6.054-1.886,9.375c0,3.15,0.571,6.158,1.697,8.936c0.988,2.458,2.358,4.614,4.07,6.406
		c0.676,0.712,1.399,1.34,2.152,1.903H68.542c-0.828,0-1.5,0.672-1.5,1.5s0.672,1.5,1.5,1.5h42.918c0.828,0,1.5-0.672,1.5-1.5
		S112.289,107.247,111.461,107.247 M81.337,103.274c-1.45-1.518-2.613-3.354-3.46-5.46c-0.981-2.423-1.479-5.052-1.479-7.813
		c0-2.91,0.551-5.664,1.645-8.197c0.87-2.058,2.066-3.857,3.555-5.345c2.423-2.423,5.327-3.704,8.399-3.704
		c3.078,0,5.986,1.281,8.408,3.704c1.489,1.488,2.686,3.287,3.555,5.345c0.002,0.004,0.003,0.007,0.006,0.011
		c1.088,2.522,1.64,5.275,1.64,8.186c0,2.761-0.498,5.39-1.481,7.818c-0.844,2.1-2.007,3.936-3.46,5.458
		c-2.432,2.561-5.511,3.97-8.667,3.97C86.847,107.247,83.772,105.838,81.337,103.274"/>
	<path fill="#202730" d="M99.534,90.121c0-1.333-0.366-2.547-1.08-3.598c-0.814-1.218-1.977-2.087-3.002-2.853
		c-0.823-0.615-1.6-1.195-2.093-1.857c-0.404-0.544-0.585-1.084-0.585-1.75c0-0.828-0.672-1.5-1.5-1.5s-1.5,0.672-1.5,1.5v10.411
		c-0.961-0.537-2.067-0.806-3.192-0.75c-1.427,0.078-2.78,0.687-3.808,1.715c-2.278,2.277-2.28,5.992,0,8.283
		c0.492,0.492,1.046,0.882,1.627,1.147c0.8,0.382,1.656,0.567,2.508,0.567c1.523,0,3.028-0.594,4.156-1.722
		c1.01-1.022,1.61-2.363,1.695-3.777c0.012-0.121,0.014-0.241,0.014-0.362v-10.18c0.292,0.232,0.588,0.457,0.882,0.677
		c0.913,0.683,1.775,1.328,2.31,2.127c0.388,0.569,0.568,1.18,0.568,1.921c0,0.828,0.671,1.5,1.5,1.5
		C98.862,91.621,99.534,90.949,99.534,90.121 M89.767,95.743c-0.037,0.694-0.335,1.356-0.83,1.858
		c-0.854,0.854-2.157,1.08-3.265,0.552c-0.28-0.129-0.534-0.309-0.774-0.549c-1.113-1.119-1.114-2.933-0.003-4.044
		c0.505-0.505,1.161-0.803,1.849-0.839c0.052-0.004,0.104-0.005,0.157-0.005c0.765,0,1.499,0.301,2.036,0.844
		c0.232,0.233,0.412,0.49,0.563,0.831c0.182,0.362,0.274,0.761,0.273,1.28C89.77,95.695,89.769,95.72,89.767,95.743"/>
</g>
</svg>
