<?xml version="1.0" encoding="utf-8"?>
<!-- Generator: Adobe Illustrator 16.0.0, SVG Export Plug-In . SVG Version: 6.00 Build 0)  -->
<!DOCTYPE svg PUBLIC "-//W3C//DTD SVG 1.1//EN" "http://www.w3.org/Graphics/SVG/1.1/DTD/svg11.dtd">
<svg version="1.1" id="Layer_1" xmlns="http://www.w3.org/2000/svg" xmlns:xlink="http://www.w3.org/1999/xlink" x="0px" y="0px"
	 width="180px" height="180px" viewBox="-4.189 -13.648 180 180" enable-background="new -4.189 -13.648 180 180"
	 xml:space="preserve">
<path fill="#FFFFFF" d="M148.902,108.195v10.601h-2.34h-2.33v-6.96c0.649-1.46,1.92-2.62,3.521-3.17
	C148.143,108.525,148.532,108.376,148.902,108.195"/>
<path fill="#FFFFFF" d="M144.232,69.466c0.649,1.47,1.92,2.62,3.521,3.18c0.289,0.1,0.58,0.21,0.859,0.33
	c4.29,1.87,7.301,6.15,7.301,11.15v0.11v12.83v0.119c0,4.869-2.871,9.08-7.011,11.011c-0.37,0.18-0.76,0.329-1.149,0.47
	c-1.601,0.55-2.871,1.71-3.521,3.17v-1.1v-20.08v-20.08c0-0.38-0.03-0.74-0.101-1.1L144.232,69.466z"/>
<path fill="#FFFFFF" d="M123.532,135.536v4.131c0,2-1.619,3.619-3.619,3.619H52.902c-2,0-3.62-1.619-3.62-3.619V57.546h74.25
	V135.536z M113.973,66.917h-24.95v24.96h24.95V66.917z"/>
<path fill="#FFFFFF" d="M25.072,72.646c1.6-0.56,2.87-1.71,3.52-3.18l0.1,0.01c-0.07,0.36-0.1,0.72-0.1,1.1v20.08v20.08
	c0,0.369,0.03,0.729,0.1,1.08l-0.1,0.02c-0.65-1.46-1.92-2.62-3.52-3.17c-4.75-1.648-8.16-6.17-8.16-11.479v-0.121v-12.83v-0.109
	c0-5,3.01-9.28,7.3-11.15C24.492,72.856,24.782,72.746,25.072,72.646"/>
<path fill="#FFFFFF" d="M103.813,82.546c1.5-0.819,2.52-2.42,2.52-4.25c0-2.67-2.16-4.84-4.84-4.84c-2.67,0-4.84,2.17-4.84,4.84
	c0,1.83,1.02,3.431,2.52,4.25c-3.709,0.92-6.568,4.011-7.17,7.83h18.98C110.381,86.557,107.522,83.466,103.813,82.546"/>
<path fill="#FFFFFF" d="M103.813,82.546c-0.689,0.38-1.48,0.59-2.32,0.59s-1.63-0.21-2.32-0.59c0.74-0.18,1.521-0.278,2.32-0.278
	S103.072,82.366,103.813,82.546"/>
<polygon fill="#F95C5C" points="159.631,84.236 155.913,84.236 155.913,97.066 159.631,97.066 162.122,97.066 162.122,84.236 "/>
<path fill="#F95C5C" d="M148.402,44.016c-1.86,0-3.01,2-2.09,3.61l2.34,4.06l1.42,2.46h4.06c-1.438-3.53-3.159-6.91-5.119-10.13
	H148.402z"/>
<path fill="#F95C5C" d="M137.752,117.206c3.58,0,6.479-2.899,6.479-6.47v-20.08v-20.08c0-0.38-0.03-0.74-0.101-1.1
	c-0.521-3.06-3.18-5.38-6.381-5.38c-1.779,0-3.398,0.73-4.569,1.9s-1.899,2.79-1.899,4.58v40.16
	C131.282,114.307,134.182,117.206,137.752,117.206"/>
<path fill="#F95C5C" d="M86.413,8.796c-26.531,0-49.761,14.1-62.601,35.22c3.86,0,7.48-1.8,9.92-4.8
	c12.44-15.3,31.42-25.07,52.681-25.07c21.26,0,40.229,9.77,52.68,25.07c2.439,3,6.051,4.8,9.92,4.8
	C136.172,22.896,112.942,8.796,86.413,8.796"/>
<path fill="#F95C5C" d="M123.532,51.636c0-2-1.619-3.62-3.619-3.62H52.902c-2,0-3.62,1.62-3.62,3.62v5.91h74.25V51.636z"/>
<path fill="#F95C5C" d="M113.972,66.916h-24.95v24.96h24.949L113.972,66.916L113.972,66.916z M99.172,82.546
	c-1.5-0.819-2.521-2.42-2.521-4.25c0-2.67,2.17-4.84,4.841-4.84c2.68,0,4.84,2.17,4.84,4.84c0,1.83-1.021,3.431-2.521,4.25
	c3.71,0.92,6.569,4.011,7.17,7.83H92.002C92.603,86.557,95.461,83.466,99.172,82.546"/>
<path fill="#F95C5C" d="M35.062,64.096c-3.2,0-5.85,2.32-6.37,5.38c-0.07,0.36-0.1,0.72-0.1,1.1v20.08v20.08
	c0,0.369,0.03,0.729,0.1,1.08c0.5,3.06,3.17,5.39,6.37,5.39c3.58,0,6.48-2.899,6.48-6.47v-40.16c0-1.79-0.73-3.41-1.9-4.58
	S36.852,64.096,35.062,64.096"/>
<path fill="#F95C5C" d="M22.752,54.146l1.42-2.46l2.34-4.06c0.92-1.61-0.24-3.61-2.09-3.61h-0.61c-1.96,3.22-3.68,6.6-5.12,10.13
	H22.752z"/>
<polygon fill="#F95C5C" points="10.692,84.236 10.692,97.066 13.192,97.066 16.912,97.066 16.912,84.236 13.192,84.236 "/>
<path fill="#F95C5C" d="M146.562,117.296c-0.828,0-1.5,0.672-1.5,1.5v6.79c0,3.551-2.884,6.439-6.431,6.439
	c-0.896,0-1.771-0.158-2.602-0.475c-1.156-0.435-2.384-0.654-3.648-0.654c-2.422,0-4.782,0.851-6.646,2.394
	c-0.541,0.448-1.099,0.746-2.055,0.746l-0.11,0.001c-1.229-0.032-1.806-0.561-2.802-1.568c-1.083-1.098-2.431-2.463-5.048-2.463
	c-2.616,0-3.965,1.364-5.047,2.461c-0.934,0.945-1.551,1.569-2.913,1.569c-1.361,0-1.979-0.624-2.912-1.567
	c-1.085-1.098-2.435-2.463-5.058-2.463c-2.611,0-3.957,1.364-5.037,2.46c-0.934,0.945-1.549,1.57-2.914,1.57
	c-0.955,0-1.512-0.298-2.051-0.744c-2.867-2.379-6.813-3.044-10.302-1.737c-0.825,0.313-1.696,0.473-2.588,0.473h-2.969
	c-0.828,0-1.5,0.672-1.5,1.5s0.672,1.5,1.5,1.5H76.9c1.258,0,2.486-0.226,3.646-0.666c2.478-0.93,5.285-0.453,7.328,1.242
	c0.746,0.614,1.967,1.434,3.967,1.434c2.619,0,3.966-1.366,5.049-2.464c0.931-0.943,1.545-1.566,2.9-1.566
	c1.371,0,1.988,0.625,2.924,1.571c1.084,1.096,2.433,2.459,5.047,2.459c2.617,0,3.965-1.364,5.048-2.461
	c0.935-0.945,1.55-1.569,2.912-1.569s1.979,0.625,2.913,1.57c1.053,1.065,2.363,2.396,4.896,2.46h0.149c2,0,3.222-0.818,3.968-1.436
	c2.021-1.674,4.952-2.134,7.318-1.242c1.168,0.443,2.4,0.668,3.664,0.668c5.199,0,9.43-4.235,9.43-9.44v-6.79
	C148.062,117.968,147.391,117.296,146.562,117.296"/>
<path fill="#202730" d="M119.913,46.516H52.902c-2.823,0-5.12,2.297-5.12,5.119v88.031c0,2.823,2.297,5.12,5.12,5.12h67.011
	c2.822,0,5.119-2.297,5.119-5.12V51.635C125.032,48.813,122.735,46.516,119.913,46.516 M52.902,49.516h67.011
	c1.168,0,2.119,0.951,2.119,2.119v4.411h-71.25v-4.411C50.782,50.467,51.733,49.516,52.902,49.516 M119.913,141.786H52.902
	c-1.169,0-2.12-0.951-2.12-2.12v-80.62h71.25v80.62C122.032,140.835,121.081,141.786,119.913,141.786 M113.973,65.417h-24.95
	c-0.829,0-1.5,0.672-1.5,1.5v24.959c0,0.828,0.671,1.5,1.5,1.5h24.95c0.828,0,1.5-0.672,1.5-1.5V66.917
	C115.473,66.088,114.801,65.417,113.973,65.417 M112.473,90.376h-21.95V68.417h21.95V90.376z M66.532,66.876
	c0-0.828,0.671-1.5,1.5-1.5h13.44c0.828,0,1.5,0.672,1.5,1.5s-0.672,1.5-1.5,1.5h-13.44C67.203,68.376,66.532,67.704,66.532,66.876
	 M57.312,75.216c0-0.829,0.671-1.5,1.5-1.5h8.22c0.829,0,1.5,0.671,1.5,1.5c0,0.828-0.671,1.5-1.5,1.5h-8.22
	C57.983,76.716,57.312,76.044,57.312,75.216 M57.312,83.546c0-0.828,0.671-1.5,1.5-1.5h22.661c0.828,0,1.5,0.672,1.5,1.5
	s-0.672,1.5-1.5,1.5H58.812C57.983,85.046,57.312,84.374,57.312,83.546 M57.312,116.866c0-0.828,0.671-1.5,1.5-1.5h19.64h21.74
	c0.828,0,1.5,0.672,1.5,1.5c0,0.827-0.672,1.5-1.5,1.5h-21.74h-19.64C57.983,118.366,57.312,117.693,57.312,116.866 M57.312,108.536
	c0-0.828,0.671-1.5,1.5-1.5h5.97c0.829,0,1.5,0.672,1.5,1.5s-0.671,1.5-1.5,1.5h-5.97C57.983,110.036,57.312,109.364,57.312,108.536
	 M57.312,100.206c0-0.828,0.671-1.5,1.5-1.5h15.94c0.828,0,1.5,0.672,1.5,1.5s-0.672,1.5-1.5,1.5h-15.94
	C57.983,101.706,57.312,101.034,57.312,100.206 M68.932,133.525c0,0.828-0.671,1.5-1.5,1.5h-8.62c-0.829,0-1.5-0.672-1.5-1.5
	c0-0.827,0.671-1.5,1.5-1.5h8.62C68.261,132.025,68.932,132.698,68.932,133.525 M57.312,91.876c0-0.828,0.671-1.5,1.5-1.5h9.22h3.92
	c0.829,0,1.5,0.672,1.5,1.5s-0.671,1.5-1.5,1.5h-3.92h-9.22C57.983,93.376,57.312,92.704,57.312,91.876 M79.532,52.786
	c0-0.828,0.671-1.5,1.5-1.5h10.75c0.829,0,1.5,0.672,1.5,1.5s-0.671,1.5-1.5,1.5h-10.75C80.203,54.286,79.532,53.614,79.532,52.786
	 M162.122,82.736h-0.99v-0.721c0-9.844-1.883-19.399-5.594-28.394c-0.014-0.036-0.027-0.07-0.043-0.104
	c-1.438-3.512-3.186-6.971-5.201-10.281C136.611,20.732,112.73,7.296,86.413,7.296c-26.32,0-50.201,13.436-63.882,35.94
	c-2.015,3.31-3.762,6.766-5.196,10.27c-0.02,0.042-0.038,0.085-0.054,0.13c-3.708,8.995-5.589,18.544-5.589,28.38v0.721h-1
	c-0.829,0-1.5,0.672-1.5,1.5v12.83c0,0.828,0.671,1.5,1.5,1.5h1v7.33c0,0.828,0.671,1.5,1.5,1.5c0.828,0,1.5-0.672,1.5-1.5v-7.33
	h0.798c0.532,5.236,4.046,9.765,9.094,11.519c1.19,0.408,2.152,1.271,2.638,2.36c0.027,0.063,0.071,0.109,0.105,0.166
	c0.842,3.563,4.006,6.095,7.735,6.095c4.4,0,7.98-3.575,7.98-7.97v-40.16c0-2.129-0.831-4.132-2.34-5.641
	c-1.508-1.509-3.511-2.34-5.64-2.34c-3.698,0-6.855,2.515-7.725,6.057c-0.042,0.066-0.084,0.133-0.117,0.207
	c-0.394,0.893-1.125,1.619-2.029,2.087c-0.41-0.751-1.002-1.271-1.459-1.666c-0.718-0.619-0.9-0.829-0.9-1.314
	c0-0.485,0.182-0.695,0.899-1.314c0.773-0.666,1.941-1.674,1.941-3.586s-1.168-2.919-1.94-3.586c-0.718-0.619-0.9-0.829-0.9-1.314
	c0-0.486,0.182-0.696,0.901-1.315c0.772-0.664,1.939-1.669,1.939-3.575v-1.19l2.142-3.716c0.627-1.097,0.685-2.381,0.184-3.514
	c2.656-0.833,5.06-2.434,6.898-4.694c12.667-15.58,31.444-24.516,51.517-24.516c20.062,0,38.838,8.936,51.518,24.516
	c1.836,2.259,4.238,3.86,6.895,4.693c-0.5,1.132-0.441,2.417,0.188,3.52l2.141,3.71v1.191c0,1.906,1.167,2.911,1.938,3.575
	c0.721,0.619,0.902,0.829,0.902,1.315c0,0.485-0.183,0.695-0.9,1.314c-0.772,0.666-1.939,1.674-1.939,3.586s1.168,2.92,1.94,3.586
	c0.718,0.619,0.899,0.829,0.899,1.314c0,0.485-0.183,0.695-0.9,1.314c-0.457,0.395-1.049,0.915-1.459,1.665
	c-0.906-0.469-1.635-1.195-2.028-2.086c-0.032-0.074-0.075-0.14-0.116-0.206c-0.869-3.542-4.031-6.058-7.736-6.058
	c-2.121,0-4.121,0.831-5.631,2.34c-1.508,1.509-2.338,3.512-2.338,5.641v40.16c0,4.395,3.574,7.97,7.969,7.97
	c1.884,0,3.613-0.659,4.98-1.753v1.843c0,0.828,0.671,1.5,1.5,1.5h4.67c0.828,0,1.5-0.672,1.5-1.5v-9.683
	c3.887-2.165,6.479-6.133,6.932-10.547h0.799v7.33c0,0.828,0.673,1.5,1.5,1.5c0.828,0,1.5-0.672,1.5-1.5v-7.33h0.99
	c0.828,0,1.5-0.672,1.5-1.5v-12.83C163.622,83.408,162.952,82.736,162.122,82.736 M158.131,82.736h-0.799
	c-0.451-4.435-3.041-8.371-6.94-10.542c0.138-0.175,0.34-0.366,0.66-0.643c0.772-0.667,1.94-1.673,1.94-3.585
	c0-1.912-1.168-2.919-1.94-3.585c-0.718-0.62-0.899-0.83-0.899-1.315s0.182-0.695,0.899-1.314c0.772-0.667,1.94-1.674,1.94-3.586
	c0-1.11-0.396-1.909-0.879-2.52h0.989c3.327,8.378,5.028,17.241,5.028,26.37V82.736L158.131,82.736z M151.851,52.646h-0.912
	l-3.323-5.764c-0.238-0.416-0.08-0.78,0-0.915c0.063-0.111,0.239-0.332,0.557-0.413C149.538,47.86,150.771,50.233,151.851,52.646
	 M25.212,46.877l-3.326,5.769h-0.913c1.079-2.411,2.313-4.784,3.679-7.092c0.315,0.082,0.491,0.304,0.555,0.415
	C25.287,46.106,25.446,46.468,25.212,46.877 M19.721,55.646h0.989c-0.482,0.611-0.878,1.409-0.878,2.52
	c0,1.912,1.167,2.919,1.94,3.586c0.718,0.619,0.9,0.829,0.9,1.314s-0.182,0.695-0.9,1.315c-0.773,0.666-1.94,1.673-1.94,3.585
	c0,1.912,1.167,2.918,1.94,3.585c0.321,0.277,0.522,0.468,0.66,0.642c-3.898,2.167-6.489,6.106-6.941,10.543h-0.799v-0.721
	C14.692,72.889,16.394,64.029,19.721,55.646 M12.192,85.736h3.22v9.83h-3.22V85.736z M30.171,69.728
	c0.406-2.393,2.464-4.132,4.891-4.132c1.327,0,2.577,0.519,3.519,1.461c0.942,0.943,1.461,2.192,1.461,3.52v40.159
	c0,2.74-2.234,4.971-4.98,4.971c-2.442,0-4.499-1.737-4.899-4.184c-0.048-0.238-0.071-0.496-0.071-0.787V70.577
	c0-0.298,0.024-0.564,0.072-0.814C30.166,69.751,30.169,69.739,30.171,69.728 M27.092,73.327v34.651
	c-0.477-0.295-0.987-0.543-1.528-0.729c-4.278-1.485-7.152-5.529-7.152-10.063v-0.119v-12.83v-0.11c0-4.244,2.512-8.081,6.391-9.771
	c0.246-0.105,0.501-0.203,0.765-0.293C26.108,73.874,26.617,73.623,27.092,73.327 M140.256,38.27
	c-13.252-16.284-32.877-25.623-53.844-25.623c-20.979,0-40.604,9.339-53.845,25.623c-1.52,1.869-3.522,3.169-5.726,3.803
	c13.361-19.955,35.391-31.776,59.571-31.776c24.178,0,46.207,11.821,59.568,31.776C143.778,41.438,141.776,40.138,140.256,38.27
	 M137.752,115.706c-2.74,0-4.971-2.229-4.971-4.97v-40.16c0-1.328,0.52-2.577,1.461-3.52c0.942-0.942,2.188-1.461,3.51-1.461
	c2.434,0,4.494,1.739,4.9,4.132c0.002,0.012,0.006,0.024,0.006,0.035c0.049,0.25,0.073,0.516,0.073,0.814v40.16
	C142.732,113.477,140.499,115.706,137.752,115.706 M145.732,117.296v-5.071c0.375-0.719,0.942-1.33,1.67-1.755v6.826H145.732z
	 M154.413,97.188c0,4.123-2.412,7.91-6.166,9.66c-0.338,0.163-0.711,0.303-0.981,0.399c-0.542,0.187-1.056,0.437-1.532,0.731V73.327
	c0.479,0.296,0.988,0.548,1.532,0.738c0.256,0.087,0.511,0.185,0.749,0.286c3.887,1.695,6.398,5.53,6.398,9.774v0.109v12.83V97.188
	L154.413,97.188z M157.413,85.736h3.209v9.83h-3.209V85.736z M57.312,66.876c0-0.828,0.671-1.5,1.5-1.5h2.72
	c0.829,0,1.5,0.672,1.5,1.5s-0.671,1.5-1.5,1.5h-2.72C57.983,68.376,57.312,67.704,57.312,66.876 M78.452,93.376
	c-0.829,0-1.5-0.672-1.5-1.5s0.671-1.5,1.5-1.5h3.021c0.828,0,1.5,0.672,1.5,1.5s-0.672,1.5-1.5,1.5H78.452z M82.973,75.216
	c0,0.828-0.672,1.5-1.5,1.5h-7.94c-0.829,0-1.5-0.672-1.5-1.5c0-0.829,0.671-1.5,1.5-1.5h7.94
	C82.301,73.716,82.973,74.387,82.973,75.216 M97.752,101.706h-16.5c-0.829,0-1.5-0.672-1.5-1.5s0.671-1.5,1.5-1.5h16.5
	c0.828,0,1.5,0.672,1.5,1.5S98.581,101.706,97.752,101.706 M115.473,100.206c0,0.828-0.672,1.5-1.5,1.5h-9.721
	c-0.83,0-1.5-0.672-1.5-1.5s0.67-1.5,1.5-1.5h9.721C114.801,98.706,115.473,99.378,115.473,100.206 M71.282,107.036h16.089
	c0.83,0,1.5,0.672,1.5,1.5s-0.67,1.5-1.5,1.5H71.282c-0.829,0-1.5-0.672-1.5-1.5S70.453,107.036,71.282,107.036 M115.473,108.536
	c0,0.828-0.672,1.5-1.5,1.5H93.872c-0.828,0-1.5-0.672-1.5-1.5s0.672-1.5,1.5-1.5h20.102
	C114.801,107.036,115.473,107.708,115.473,108.536 M115.473,116.866c0,0.827-0.672,1.5-1.5,1.5h-7.28c-0.829,0-1.5-0.673-1.5-1.5
	c0-0.828,0.671-1.5,1.5-1.5h7.28C114.801,115.366,115.473,116.038,115.473,116.866 M81.282,125.195c0,0.828-0.671,1.5-1.5,1.5
	h-20.97c-0.829,0-1.5-0.672-1.5-1.5c0-0.827,0.671-1.5,1.5-1.5h20.97C80.611,123.695,81.282,124.368,81.282,125.195
	 M115.473,125.195c0,0.828-0.672,1.5-1.5,1.5h-27.69c-0.829,0-1.5-0.672-1.5-1.5c0-0.827,0.671-1.5,1.5-1.5h27.69
	C114.801,123.695,115.473,124.368,115.473,125.195"/>
</svg>
