<?xml version="1.0" encoding="utf-8"?>
<!-- Generator: Adobe Illustrator 18.0.0, SVG Export Plug-In . SVG Version: 6.00 Build 0)  -->
<!DOCTYPE svg PUBLIC "-//W3C//DTD SVG 1.1//EN" "http://www.w3.org/Graphics/SVG/1.1/DTD/svg11.dtd">
<svg version="1.1" id="Layer_1" xmlns="http://www.w3.org/2000/svg" xmlns:xlink="http://www.w3.org/1999/xlink" x="0px" y="0px"
	 viewBox="0 0 644 489" enable-background="new 0 0 644 489" xml:space="preserve">
<path fill="#0C0B0B" stroke="#0C0B0B" stroke-miterlimit="10" d="M626.7,214.8c-6.7-9.4-15.5-16.9-26.1-22.6l-2-1.1
	c-0.3-10.9-7.8-20-17.8-22.8l-2.9-5.7c-19.2-38.4-48.6-70.8-85-93.7c-37.4-23.6-80.6-36-125-36c-44.4,0-87.6,12.5-125,36
	c-28.5,17.9-52.7,41.7-71.1,69.6l-2.5,0.4c-10.5,1.8-29.4,3.6-48,3.6c-29.3,0-35.2-4.4-35.5-4.6c-14.3-11.3-21.3-15.1-27.7-15.1
	c-4.3,0-8,1.8-10.5,5.1c-5.3,6.8-3.9,16.9,2.6,41.7c5.4,20.5,14.9,31,23.8,36.4c-1.3,0.2-2.6,0.3-4,0.3c-9.6,0-20.1-3.8-27.1-6.4
	c-8.1-3-12.9-4.6-17.2-4.6c-4.6,0-8.4,2-10.6,5.6c-3.8,6.2-0.3,12.9,0.9,15.2c9.4,18.2,33.5,34.7,53.4,47c1.4,0.9,2.7,1.7,3.3,2.1
	c4.6,3.1,10.9,4.8,17.7,4.8c0,0,0,0,0,0c4.3,0,10.2-0.7,16.7-3.4v32.3l1.9,2.6c6.7,9.4,15.5,16.9,26.1,22.6l2,1.1v0.7
	c0,13.5,10.9,24.4,24.4,24.4h45.3l-5.5-13.7c-8.8-22.1-13.3-45.5-13.3-69.6c0-29.6,7-58.9,20.1-84.8l7.4-14.5h-7.1
	c34.3-54.4,94.9-87.9,159.3-87.9c64.4,0,125,33.6,159.3,87.9H520l7.4,14.5c13.2,25.9,20.1,55.2,20.1,84.8c0,24.1-4.5,47.6-13.3,69.6
	l-5.5,13.7h45.3c13.5,0,24.4-10.9,24.4-24.4V325l2-1.1c10.6-5.6,19.4-13.2,26.1-22.6l1.9-2.6v-81.4L626.7,214.8z"/>
<path fill="#00ADEE" d="M197,167.1c34.5-58.4,98.1-97.6,170.8-97.6c72.8,0,136.3,39.2,170.8,97.6h30.3
	C532,93.5,455.8,42.9,367.8,42.9c-88,0-164.2,50.6-201.1,124.2H197z"/>
<g>
	<path fill="#00ADEE" d="M178,266.8c0-32.3,7.7-62.7,21.2-89.3h-37.8c-8,0-14.4,6.4-14.4,14.4v133.9c0,8,6.4,14.4,14.4,14.4H192
		C183,317.6,178,292.8,178,266.8z"/>
	<path fill="#00ADEE" d="M117,220.6v75c5.8,8.1,13.6,14.7,22.7,19.6V201.1C130.6,205.9,122.8,212.5,117,220.6z"/>
</g>
<g>
	<path fill="#00ADEE" d="M557.6,266.8c0-32.3-7.7-62.7-21.2-89.3h37.8c8,0,14.4,6.4,14.4,14.4v133.9c0,8-6.4,14.4-14.4,14.4h-30.6
		C552.6,317.6,557.6,292.8,557.6,266.8z"/>
	<path fill="#00ADEE" d="M618.6,220.6v75c-5.8,8.1-13.6,14.7-22.7,19.6V201.1C605,205.9,612.8,212.5,618.6,220.6z"/>
</g>
<path fill="#F95C5C" d="M170.9,148.8l-10,18.3c0,0-38.4,0.9-67,34.3c0,0-24,3.7-34-34.3s-8.1-43.3,19.7-21.3
	C92.2,155.8,147.5,152.8,170.9,148.8z"/>
<path fill="#F95C5C" d="M144.2,177.4c0,0-0.3-0.3-1-0.6c-4.2-1.4-24.2,6.1-48.3,30.6c-15.7,15.9-40.2,7.4-55.3,1.8
	c-12.1-4.4-19.4-7-14.7,2.2c10.7,20.7,42.6,40.6,52.3,45.3c6.5,3.2,20.3,5.3,33-3.3c0,0-1.7-21.9-0.6-31.4
	c0.6-5.2,4.7-10.1,8.9-13.6c9.5-7.9,21-15.7,21-15.7L144.2,177.4z"/>
<circle fill="#262525" stroke="#0C0B0B" stroke-width="7" stroke-miterlimit="10" cx="367.8" cy="267.8" r="180.3"/>
<path fill="#F4BFA2" d="M478.5,213.8c-14.3-1.5-64.1-7.2-113.2-7.2c-47.4,0-94.2,5.7-108.1,7.2c-27.5,2.8-43.8,20-43.8,56.3
	c0,26.7,20.2,41.3,49,45.3c13.2,1.9,57.3,8.8,102.2,8.8c47,0,94.9-6.9,108.8-8.8c28.9-4,49-18.6,49-45.3
	C522.3,233.8,505.9,216.6,478.5,213.8z"/>
<path fill="#F95C5C" stroke="#0C0B0B" stroke-width="7" stroke-miterlimit="10" d="M219.8,165.3c-11.4,16.5-20.1,34.9-25.5,54.8
	c50.9-16.4,112.4-22,178.6-22c61.8,0,119.6,4.9,168.4,18.9c-6-20.4-15.4-39.2-27.7-55.9c-42.4-13.7-90.2-20.3-140.7-20.3
	C317.4,140.8,265.3,148.8,219.8,165.3z"/>
<path fill="none" stroke="#0C0B0B" stroke-width="7" stroke-linecap="round" stroke-miterlimit="10" d="M347.3,294.1
	c0,0,6.3,11.3,21,11.3c14.7,0,20-12,20-12"/>
<circle fill="#0C0B0B" cx="461" cy="252.8" r="20.3"/>
<ellipse fill="#F77F7F" cx="492" cy="278.4" rx="23" ry="6.7"/>
<circle fill="#0C0B0B" cx="274.6" cy="252.8" r="20.3"/>
<ellipse fill="#F77F7F" cx="243.6" cy="278.4" rx="23" ry="6.7"/>
</svg>
