<?xml version="1.0" encoding="utf-8"?>
<!-- Generator: Adobe Illustrator 16.0.0, SVG Export Plug-In . SVG Version: 6.00 Build 0)  -->
<!DOCTYPE svg PUBLIC "-//W3C//DTD SVG 1.1//EN" "http://www.w3.org/Graphics/SVG/1.1/DTD/svg11.dtd">
<svg version="1.1" id="Layer_1" xmlns="http://www.w3.org/2000/svg" xmlns:xlink="http://www.w3.org/1999/xlink" x="0px" y="0px"
	 width="180px" height="180px" viewBox="0 0 180 180" enable-background="new 0 0 180 180" xml:space="preserve">
<path fill="#FFFFFF" d="M80.515,94.461c-1.544,0-2.8-1.257-2.8-2.791v-4.808h5.59v4.808C83.305,93.205,82.049,94.461,80.515,94.461"
	/>
<path fill="#FFFFFF" d="M65.297,117.442c3.84,5.406,6.178,11.717,6.795,18.286v1.544h0.114c0.042,0.68,0.062,1.369,0.062,2.059v2.75
	h37.962v-2.287c0-0.844,0.03-1.688,0.092-2.522h0.165l-0.01-1.626c0.287-2.626,0.885-5.201,1.739-7.682
	c1.308-3.778,3.244-7.33,5.746-10.522c5.005-6.373,7.731-14.25,7.731-22.353V91.67c0-4.087-3.313-7.402-7.392-7.402h-0.813V29.956
	c0-2.049-0.835-3.893-2.174-5.231c-1.338-1.338-3.182-2.162-5.219-2.162c-4.089,0-7.404,3.305-7.404,7.393v37.241
	c0-4.088-3.305-7.393-7.392-7.393c-4.088,0-7.393,3.305-7.393,7.393c0-4.088-3.315-7.393-7.393-7.393
	c-4.087,0-7.403,3.305-7.403,7.393V42.012c0-2.039-0.823-3.892-2.162-5.23c-1.338-1.338-3.181-2.163-5.23-2.163
	c-4.087,0-7.393,3.305-7.393,7.393v32.484h0.01v21.046c0,3.922,0.607,7.793,1.781,11.491
	C61.292,110.729,63.032,114.241,65.297,117.442 M131.871,91.67v3.418c0,9.441-3.211,18.739-9.049,26.163
	c-4.139,5.262-6.415,11.851-6.415,18.543v8.464h-15.104H81.194H66.09v-8.928c0-6.599-2.018-12.942-5.828-18.327
	c-5.302-7.485-8.103-16.288-8.103-25.462V78.224l-0.01-3.727V42.012c0-7.485,6.085-13.571,13.57-13.571s13.57,6.085,13.57,13.571
	v11.666c0.402-0.031,0.813-0.052,1.226-0.052c2.718,0,5.261,0.804,7.393,2.193c2.131-1.39,4.664-2.193,7.393-2.193
	c0.411,0,0.813,0.021,1.214,0.052V29.956c0-7.486,6.095-13.571,13.582-13.571c7.484,0,13.57,6.085,13.57,13.571v49.247
	C128.485,81.282,131.871,86.09,131.871,91.67"/>
<path fill="#F95C5C" d="M115.315,24.725c1.339,1.338,2.174,3.182,2.174,5.231v54.313h-14.797V67.197V29.956
	c0-4.088,3.315-7.393,7.404-7.393C112.134,22.563,113.978,23.386,115.315,24.725"/>
<path fill="#FFFFFF" d="M100.108,88.88v5.582H95.3c-1.544,0-2.791-1.257-2.791-2.791c0-1.544,1.246-2.791,2.791-2.791H100.108z"/>
<rect x="82.852" y="114.333" fill="#F95C5C" width="5.375" height="5.364"/>
<path fill="#F95C5C" d="M90.07,86.44c-1.339,1.338-2.163,3.182-2.163,5.23V67.197c0-4.088,3.305-7.393,7.393-7.393
	c4.087,0,7.392,3.305,7.392,7.393v17.071H95.3C93.261,84.268,91.408,85.091,90.07,86.44"/>
<path fill="#F95C5C" d="M87.907,67.197V91.67c0,4.078-3.315,7.393-7.393,7.393c-2.039,0-3.892-0.834-5.23-2.173
	s-2.173-3.181-2.173-5.22V67.197c0-4.088,3.316-7.393,7.403-7.393C84.592,59.804,87.907,63.109,87.907,67.197 M77.714,91.67
	c0,1.534,1.256,2.791,2.8,2.791c1.534,0,2.79-1.257,2.79-2.791v-4.808h-5.59V91.67z"/>
<path fill="#F95C5C" d="M88.227,114.333h-5.375v5.364h5.375V114.333z M92.51,91.67c0,1.534,1.246,2.791,2.791,2.791h4.808V88.88
	H95.3C93.756,88.88,92.51,90.126,92.51,91.67 M118.302,84.268c4.078,0,7.392,3.315,7.392,7.402v3.418
	c0,8.104-2.727,15.98-7.731,22.353c-2.502,3.192-4.438,6.744-5.746,10.522c-0.854,2.481-1.452,5.056-1.739,7.682l-0.01-1.463h-3.069
	c-0.854,0-1.544,0.69-1.544,1.544c0,0.854,0.689,1.544,1.544,1.544h2.924c-0.062,0.834-0.092,1.679-0.092,2.522v2.287H72.268v-2.75
	c0-0.69-0.021-1.379-0.062-2.059h2.975c0.855,0,1.544-0.69,1.544-1.544c0-0.854-0.689-1.544-1.544-1.544h-3.089v1.544
	c-0.617-6.569-2.955-12.88-6.795-18.286c-2.265-3.201-4.005-6.712-5.179-10.409c-1.174-3.697-1.781-7.568-1.781-11.491V74.497h-0.01
	V42.012c0-4.088,3.305-7.393,7.393-7.393c2.049,0,3.892,0.824,5.23,2.163c1.339,1.338,2.162,3.192,2.162,5.23v25.185V91.67
	c0,2.039,0.834,3.882,2.173,5.22s3.192,2.173,5.23,2.173c4.077,0,7.393-3.315,7.393-7.393c0-2.048,0.824-3.892,2.163-5.23
	c1.338-1.349,3.191-2.172,5.23-2.172h7.392h14.797H118.302z M101.787,135.728c0-0.854-0.689-1.544-1.544-1.544h-5.375
	c-0.844,0-1.544,0.69-1.544,1.544c0,0.854,0.7,1.544,1.544,1.544h5.375C101.098,137.272,101.787,136.583,101.787,135.728
	 M89.256,135.728c0-0.854-0.69-1.544-1.544-1.544h-5.364c-0.855,0-1.544,0.69-1.544,1.544c0,0.854,0.689,1.544,1.544,1.544h5.364
	C88.566,137.272,89.256,136.583,89.256,135.728"/>
<path fill="#FFFFFF" d="M91.727,115.877c0.853,0,1.544-0.692,1.544-1.544s-0.691-1.544-1.544-1.544h-1.956v-1.957
	c0-0.853-0.692-1.544-1.544-1.544c-0.853,0-1.544,0.691-1.544,1.544v1.957h-2.286v-1.957c0-0.853-0.691-1.544-1.544-1.544
	c-0.853,0-1.544,0.691-1.544,1.544v1.957h-1.956c-0.854,0-1.544,0.692-1.544,1.544s0.691,1.544,1.544,1.544h1.956v2.275h-1.956
	c-0.854,0-1.544,0.692-1.544,1.544s0.691,1.544,1.544,1.544h1.956v1.956c0,0.853,0.692,1.544,1.544,1.544
	c0.853,0,1.544-0.691,1.544-1.544v-1.956h2.286v1.956c0,0.853,0.692,1.544,1.544,1.544c0.852,0,1.544-0.691,1.544-1.544v-1.956
	h1.956c0.853,0,1.544-0.692,1.544-1.544s-0.691-1.544-1.544-1.544h-1.956v-2.275H91.727z M86.682,118.153h-2.286v-2.275h2.286
	V118.153z"/>
<path fill="#FFFFFF" d="M103.146,121.653h-0.959v-10.821c0-0.197-0.04-0.384-0.106-0.558c-0.004-0.008-0.004-0.019-0.009-0.027
	c-0.078-0.189-0.19-0.36-0.333-0.502c0-0.001,0-0.002,0-0.002c0-0.001-0.002-0.001-0.002-0.001
	c-0.144-0.143-0.314-0.257-0.505-0.336c-0.006-0.002-0.013-0.003-0.019-0.005c-0.175-0.069-0.364-0.109-0.565-0.11
	c0,0-0.002-0.001-0.004-0.001c0,0,0,0-0.002,0c-0.194,0-0.382,0.04-0.555,0.106c-0.01,0.004-0.021,0.006-0.03,0.01
	c-0.188,0.077-0.36,0.191-0.501,0.332c-0.002,0.001-0.002,0.001-0.002,0.002l-3.286,3.274c-0.604,0.603-0.606,1.58-0.004,2.184
	c0.302,0.302,0.698,0.455,1.095,0.455c0.394,0,0.788-0.15,1.09-0.451l0.649-0.648v7.102h-0.957c-0.853,0-1.544,0.692-1.544,1.544
	c0,0.853,0.691,1.544,1.544,1.544h5.005c0.851,0,1.545-0.691,1.545-1.544C104.691,122.345,103.997,121.653,103.146,121.653"/>
<path fill="#202730" d="M100.243,134.184h-5.375c-0.844,0-1.544,0.69-1.544,1.544c0,0.854,0.7,1.544,1.544,1.544h5.375
	c0.854,0,1.544-0.69,1.544-1.544C101.787,134.874,101.098,134.184,100.243,134.184"/>
<path fill="#202730" d="M87.712,134.184h-5.364c-0.855,0-1.544,0.69-1.544,1.544c0,0.854,0.689,1.544,1.544,1.544h5.364
	c0.854,0,1.544-0.69,1.544-1.544C89.256,134.874,88.566,134.184,87.712,134.184"/>
<path fill="#202730" d="M119.031,82.76V29.955c0-2.385-0.931-4.63-2.624-6.322c-1.684-1.687-3.928-2.614-6.311-2.614
	c-4.936,0-8.949,4.008-8.949,8.936v30.499c-1.568-1.363-3.611-2.195-5.848-2.195c-3.07,0-5.783,1.558-7.392,3.923
	c-1.609-2.365-4.322-3.923-7.392-3.923c-2.242,0-4.288,0.834-5.858,2.198V42.012c0-2.391-0.929-4.638-2.615-6.323
	c-1.688-1.686-3.933-2.613-6.323-2.613c-4.928,0-8.938,4.009-8.938,8.937v32.484c0,0.037,0.01,0.073,0.012,0.109v20.937
	c0,4.06,0.624,8.084,1.853,11.958c1.229,3.869,3.043,7.515,5.393,10.836c3.67,5.166,5.923,11.23,6.517,17.544
	c0.049,0.484,0.087,0.97,0.109,1.485c0.04,0.648,0.058,1.307,0.058,1.966v2.75c0,0.853,0.692,1.544,1.544,1.544h37.963
	c0.853,0,1.544-0.692,1.544-1.544v-2.287c0-0.801,0.03-1.613,0.089-2.429c0.03-0.485,0.08-0.968,0.137-1.452
	c0.002-0.007,0.002-0.014,0.002-0.021c0.004-0.026,0.008-0.051,0.01-0.077h0.002c0.268-2.446,0.829-4.919,1.661-7.346
	c1.259-3.63,3.109-7.021,5.502-10.073c5.201-6.622,8.063-14.899,8.063-23.307V91.67C127.238,86.985,123.618,83.135,119.031,82.76
	 M104.236,29.955c0-3.225,2.629-5.847,5.86-5.847c1.559,0,3.024,0.606,4.126,1.709c1.11,1.108,1.72,2.579,1.72,4.138v52.768h-11.706
	V67.197V29.955z M95.299,61.348c3.224,0,5.848,2.624,5.848,5.849v15.526h-5.848c-2.181,0-4.232,0.78-5.848,2.192V67.197
	C89.452,63.972,92.076,61.348,95.299,61.348 M80.515,61.348c3.225,0,5.848,2.624,5.848,5.849V91.67c0,3.226-2.623,5.849-5.848,5.849
	c-1.56,0-3.028-0.611-4.138-1.722c-1.11-1.107-1.72-2.574-1.72-4.126V67.197C74.657,63.972,77.284,61.348,80.515,61.348
	 M124.149,95.089c0,7.72-2.629,15.32-7.402,21.401c-2.606,3.324-4.621,7.014-5.991,10.972c-0.764,2.22-1.303,4.475-1.635,6.722
	h-1.724c-0.854,0-1.544,0.689-1.544,1.544c0,0.854,0.689,1.544,1.544,1.544h1.38c-0.059,0.836-0.093,1.683-0.093,2.522v0.742H73.811
	v-1.206c0-0.699-0.021-1.396-0.059-2.059h1.43c0.854,0,1.544-0.69,1.544-1.544c0-0.855-0.689-1.544-1.544-1.544H73.45
	c-0.827-6.339-3.182-12.411-6.893-17.633c-2.164-3.059-3.835-6.418-4.968-9.986c-1.132-3.57-1.708-7.279-1.708-11.022V74.497
	c0-0.037-0.008-0.073-0.012-0.11V42.012c0-3.225,2.624-5.848,5.85-5.848c1.566,0,3.035,0.606,4.139,1.709
	c1.102,1.102,1.709,2.572,1.709,4.138v25.185V91.67c0,2.379,0.931,4.621,2.624,6.313c1.694,1.693,3.939,2.625,6.323,2.625
	c3.07,0,5.783-1.557,7.392-3.922c1.609,2.365,4.322,3.922,7.392,3.922h13.653c0.853,0,1.545-0.693,1.545-1.544
	c0-0.853-0.692-1.544-1.545-1.544H95.299c-3.224,0-5.848-2.623-5.848-5.849c0-1.566,0.608-3.037,1.714-4.143
	c1.097-1.106,2.564-1.716,4.133-1.716h23.002c3.226,0,5.848,2.628,5.848,5.858V95.089z"/>
<path fill="#202730" d="M125.209,78.225v-48.27c0-8.334-6.779-15.114-15.112-15.114c-8.342,0-15.127,6.78-15.127,15.114v22.13
	c-2.489,0.054-4.906,0.716-7.062,1.928c-2.159-1.214-4.58-1.876-7.073-1.929V42.012c0-8.335-6.78-15.114-15.115-15.114
	s-15.116,6.779-15.116,15.114l0.012,53.53c0,9.496,2.899,18.609,8.386,26.354c3.626,5.127,5.543,11.156,5.543,17.435v8.928
	c0,0.853,0.692,1.544,1.544,1.544h13.56v9.863c0,0.853,0.692,1.544,1.544,1.544s1.544-0.692,1.544-1.544v-9.863h17.02v9.863
	c0,0.853,0.692,1.544,1.545,1.544s1.544-0.692,1.544-1.544v-9.863h13.561c0.853,0,1.544-0.692,1.544-1.544v-8.464
	c0-6.354,2.16-12.601,6.086-17.589c6.049-7.692,9.379-17.323,9.379-27.117V91.67C133.416,85.975,130.227,80.805,125.209,78.225
	 M130.327,95.089c0,9.105-3.097,18.058-8.72,25.208c-4.348,5.529-6.745,12.454-6.745,19.499v6.92h-13.56H81.193h-13.56v-7.383
	c0-6.922-2.113-13.567-6.112-19.22c-5.114-7.22-7.818-15.716-7.818-24.569l-0.012-53.53c0-6.631,5.396-12.025,12.027-12.025
	s12.026,5.394,12.026,12.025v11.665c0,0.431,0.179,0.843,0.495,1.134c0.315,0.292,0.728,0.438,1.168,0.406
	c0.361-0.028,0.734-0.046,1.106-0.046c2.337,0,4.601,0.672,6.548,1.942c0.514,0.335,1.175,0.335,1.688,0
	c1.948-1.27,4.212-1.942,6.548-1.942c0.373,0,0.733,0.019,1.095,0.046c0.432,0.034,0.853-0.113,1.17-0.406
	c0.313-0.291,0.494-0.703,0.494-1.134V29.955c0-6.631,5.399-12.025,12.038-12.025c6.63,0,12.023,5.394,12.023,12.025v49.247
	c0,0.617,0.368,1.174,0.936,1.418c4.418,1.908,7.271,6.245,7.271,11.051V95.089z"/>
<path fill="#202730" d="M80.516,96.006c2.282,0,4.14-1.781,4.302-4.024c0.021-0.101,0.032-0.204,0.032-0.312v-4.809
	c0-0.853-0.692-1.544-1.544-1.544h-5.592c-0.853,0-1.544,0.692-1.544,1.544v4.809c0,0.107,0.011,0.211,0.032,0.312
	C76.364,94.225,78.226,96.006,80.516,96.006 M79.258,88.406h2.503v3.264c0,0.676-0.57,1.247-1.246,1.247
	c-0.693,0-1.257-0.559-1.257-1.247V88.406z"/>
<path fill="#202730" d="M100.108,87.335h-4.809c-0.107,0-0.21,0.011-0.312,0.031c-2.242,0.163-4.022,2.02-4.022,4.304
	c0,2.284,1.781,4.141,4.023,4.303c0.101,0.021,0.206,0.032,0.311,0.032h4.809c0.853,0,1.544-0.692,1.544-1.544V88.88
	C101.652,88.027,100.961,87.335,100.108,87.335 M98.563,92.917h-3.264c-0.687,0-1.246-0.559-1.246-1.247
	c0-0.687,0.559-1.246,1.246-1.246h3.264V92.917z"/>
</svg>
